Stranded backpackers in remote Australia fall prey to a murderous bushman who offers to fix their car, then takes them captive.

Cast

John Jarratt ... Mick Taylor
Cassandra Magrath ... Liz Hunter
Kestie Morassi ... Kristy Ear
Nathan Phillips ... Ben Mitchell
Gordon Poole ... Old Man
Guy O'Donnell ... Car Salesman
Phil Stevenson ... Mechanic
Geoff Revell ... Petrol Attendant
Andy McPhee ... Bazza
Aaron Sterns ... Bazza's Mate
Michael Moody ... Bazza's Old Mate
Andrew Reimer ... Flashback Dad
Vicki Reimer ... Flashback Mum
Isabella Reimer ... Flashback Girl
David Rock ... Irish Backpacker
 
http://www.imdb.com/title/tt0416315/ 
 
http://leetleech.org/images/82990470439161879220.png 
http://leetleech.org/images/34662529576044502111.png 
http://leetleech.org/images/32234000385218532655.png 
http://leetleech.org/images/03533356877137464856.png
 
http://www.videodetective.com/movies/trailers/wolf-creek-trailer/493710

General
Complete name : Wolf Creek 2005 DVDRip Xvid BigPerm LKRG\WC_LKRG.avi
Format : AVI
Format/Info : Audio Video Interleave
File size : 907 MiB
Duration : 1h 44mn
Overall bit rate : 1 216 Kbps

Video
ID : 0
Format : MPEG-4 Visual
Format profile : Advanced Simple@L5
Format settings, BVOP : Yes
Format settings, QPel : No
Format settings, GMC : No warppoints
Format settings, Matrix : Default (H.263)
Codec ID : XVID
Codec ID/Hint : XviD
Duration : 1h 44mn
Bit rate : 1 019 Kbps
Width : 704 pixels
Height : 396 pixels
Display aspect ratio : 16:9
Frame rate : 23.976 fps
Color space : YUV
Chroma subsampling : 4:2:0
Bit depth : 8 bits
Scan type : Progressive
Compression mode : Lossy
Bits/(Pixel*Frame) : 0.152
Stream size : 760 MiB (84%)
Writing library : XviD 1.2.1 (UTC 2008-12-04)

Audio
ID : 1
Format : AC-3
Format/Info : Audio Coding 3
Mode extension : CM (complete main)
Codec ID : 2000
Duration : 1h 44mn
Bit rate mode : Constant
Bit rate : 192 Kbps
Channel(s) : 2 channels
Channel positions : Front: L R
Sampling rate : 48.0 KHz
Bit depth : 16 bits
Compression mode : Lossy
Video delay : 42ms
Stream size : 143 MiB (16%)
Alignment : Split accross interleaves
Interleave, duration : 500 ms (11.99 video frames)
Interleave, preload duration : 500 ms
Language : English

All credit to BigPerm